name Walk9.mot
datacolumns 19
datarows 30
range 1.95800000 1.98700000
endheader

                time	   L_ground_force_vx	   L_ground_force_vy	   L_ground_force_vz	   L_ground_force_px	   L_ground_force_py	   L_ground_force_pz	   R_ground_force_vx	   R_ground_force_vy	   R_ground_force_vz	   R_ground_force_px	   R_ground_force_py	   R_ground_force_pz	   L_ground_torque_x	   L_ground_torque_y	   L_ground_torque_z	   R_ground_torque_x	   R_ground_torque_y	   R_ground_torque_z	
          1.95800000	        -24.34312432	        526.55336643	        -28.89883334	          0.32909600	          0.00000000	          0.07354071	          0.00000000	          0.00000000	          0.00000000	          0.00000000	          0.00000000	          0.00000000	          0.00000000	          0.74429039	          0.00000000	          0.00000000	          0.00000000	          0.00000000	
          1.95900000	        -24.30894444	        525.85000732	        -29.17064590	          0.32978647	          0.00000000	          0.07348229	          0.00000000	          0.00000000	          0.00000000	          0.00000000	          0.00000000	          0.00000000	          0.00000000	          0.74645691	          0.00000000	          0.00000000	          0.00000000	          0.00000000	
          1.96000000	        -24.28087131	        525.14793917	        -29.43123920	          0.33047255	          0.00000000	          0.07339186	          0.00000000	          0.00000000	          0.00000000	          0.00000000	          0.00000000	          0.00000000	          0.00000000	          0.74996073	          0.00000000	          0.00000000	          0.00000000	          0.00000000	
          1.96100000	        -24.25281040	        524.50570216	        -29.67287281	          0.33114469	          0.00000000	          0.07328674	          0.00000000	          0.00000000	          0.00000000	          0.00000000	          0.00000000	          0.00000000	          0.00000000	          0.75634842	          0.00000000	          0.00000000	          0.00000000	          0.00000000	
          1.96200000	        -24.22879564	        523.98079733	        -29.89341736	          0.33181217	          0.00000000	          0.07318911	          0.00000000	          0.00000000	          0.00000000	          0.00000000	          0.00000000	          0.00000000	          0.00000000	          0.76010900	          0.00000000	          0.00000000	          0.00000000	          0.00000000	
          1.96300000	        -24.21387109	        523.54093317	        -30.09780352	          0.33245903	          0.00000000	          0.07310314	          0.00000000	          0.00000000	          0.00000000	          0.00000000	          0.00000000	          0.00000000	          0.00000000	          0.75758988	          0.00000000	          0.00000000	          0.00000000	          0.00000000	
          1.96400000	        -24.21011158	        523.10716075	        -30.29434095	          0.33305886	          0.00000000	          0.07302768	          0.00000000	          0.00000000	          0.00000000	          0.00000000	          0.00000000	          0.00000000	          0.00000000	          0.75123574	          0.00000000	          0.00000000	          0.00000000	          0.00000000	
          1.96500000	        -24.21313031	        522.66368609	        -30.48764739	          0.33363407	          0.00000000	          0.07296561	          0.00000000	          0.00000000	          0.00000000	          0.00000000	          0.00000000	          0.00000000	          0.00000000	          0.74445433	          0.00000000	          0.00000000	          0.00000000	          0.00000000	
          1.96600000	        -24.20855821	        522.25646335	        -30.67740088	          0.33425000	          0.00000000	          0.07290280	          0.00000000	          0.00000000	          0.00000000	          0.00000000	          0.00000000	          0.00000000	          0.00000000	          0.73922334	          0.00000000	          0.00000000	          0.00000000	          0.00000000	
          1.96700000	        -24.18146263	        521.91136371	        -30.86586732	          0.33494734	          0.00000000	          0.07280876	          0.00000000	          0.00000000	          0.00000000	          0.00000000	          0.00000000	          0.00000000	          0.00000000	          0.73754955	          0.00000000	          0.00000000	          0.00000000	          0.00000000	
          1.96800000	        -24.12715442	        521.62092368	        -31.06171299	          0.33570471	          0.00000000	          0.07267676	          0.00000000	          0.00000000	          0.00000000	          0.00000000	          0.00000000	          0.00000000	          0.00000000	          0.73992807	          0.00000000	          0.00000000	          0.00000000	          0.00000000	
          1.96900000	        -24.04678201	        521.37884980	        -31.27068223	          0.33645782	          0.00000000	          0.07252821	          0.00000000	          0.00000000	          0.00000000	          0.00000000	          0.00000000	          0.00000000	          0.00000000	          0.74427130	          0.00000000	          0.00000000	          0.00000000	          0.00000000	
          1.97000000	        -23.94172564	        521.17950604	        -31.48294613	          0.33713906	          0.00000000	          0.07237363	          0.00000000	          0.00000000	          0.00000000	          0.00000000	          0.00000000	          0.00000000	          0.00000000	          0.74980900	          0.00000000	          0.00000000	          0.00000000	          0.00000000	
          1.97100000	        -23.81668121	        521.01404254	        -31.67687782	          0.33771919	          0.00000000	          0.07221106	          0.00000000	          0.00000000	          0.00000000	          0.00000000	          0.00000000	          0.00000000	          0.00000000	          0.75873300	          0.00000000	          0.00000000	          0.00000000	          0.00000000	
          1.97200000	        -23.67720717	        520.88541856	        -31.83791263	          0.33822512	          0.00000000	          0.07205585	          0.00000000	          0.00000000	          0.00000000	          0.00000000	          0.00000000	          0.00000000	          0.00000000	          0.77221507	          0.00000000	          0.00000000	          0.00000000	          0.00000000	
          1.97300000	        -23.52249354	        520.81205120	        -31.96767826	          0.33871596	          0.00000000	          0.07193612	          0.00000000	          0.00000000	          0.00000000	          0.00000000	          0.00000000	          0.00000000	          0.00000000	          0.78776796	          0.00000000	          0.00000000	          0.00000000	          0.00000000	
          1.97400000	        -23.35037841	        520.81837302	        -32.07830296	          0.33925444	          0.00000000	          0.07186333	          0.00000000	          0.00000000	          0.00000000	          0.00000000	          0.00000000	          0.00000000	          0.00000000	          0.80132243	          0.00000000	          0.00000000	          0.00000000	          0.00000000	
          1.97500000	        -23.16745662	        520.92121396	        -32.18491374	          0.33989184	          0.00000000	          0.07182272	          0.00000000	          0.00000000	          0.00000000	          0.00000000	          0.00000000	          0.00000000	          0.00000000	          0.81050075	          0.00000000	          0.00000000	          0.00000000	          0.00000000	
          1.97600000	        -22.98640275	        521.11325833	        -32.29621854	          0.34065143	          0.00000000	          0.07178945	          0.00000000	          0.00000000	          0.00000000	          0.00000000	          0.00000000	          0.00000000	          0.00000000	          0.81423759	          0.00000000	          0.00000000	          0.00000000	          0.00000000	
          1.97700000	        -22.81506588	        521.35688271	        -32.40910449	          0.34151802	          0.00000000	          0.07174704	          0.00000000	          0.00000000	          0.00000000	          0.00000000	          0.00000000	          0.00000000	          0.00000000	          0.81186867	          0.00000000	          0.00000000	          0.00000000	          0.00000000	
          1.97800000	        -22.65343027	        521.59630768	        -32.51533406	          0.34244223	          0.00000000	          0.07168690	          0.00000000	          0.00000000	          0.00000000	          0.00000000	          0.00000000	          0.00000000	          0.00000000	          0.80533202	          0.00000000	          0.00000000	          0.00000000	          0.00000000	
          1.97900000	        -22.49915377	        521.78229776	        -32.60795715	          0.34335725	          0.00000000	          0.07159758	          0.00000000	          0.00000000	          0.00000000	          0.00000000	          0.00000000	          0.00000000	          0.00000000	          0.79875028	          0.00000000	          0.00000000	          0.00000000	          0.00000000	
          1.98000000	        -22.34885821	        521.90225370	        -32.68329901	          0.34420880	          0.00000000	          0.07147562	          0.00000000	          0.00000000	          0.00000000	          0.00000000	          0.00000000	          0.00000000	          0.00000000	          0.79476773	          0.00000000	          0.00000000	          0.00000000	          0.00000000	
          1.98100000	        -22.19729905	        521.98338212	        -32.74368787	          0.34497613	          0.00000000	          0.07134330	          0.00000000	          0.00000000	          0.00000000	          0.00000000	          0.00000000	          0.00000000	          0.00000000	          0.79250401	          0.00000000	          0.00000000	          0.00000000	          0.00000000	
          1.98200000	        -22.04239625	        522.05694163	        -32.79584515	          0.34565968	          0.00000000	          0.07122751	          0.00000000	          0.00000000	          0.00000000	          0.00000000	          0.00000000	          0.00000000	          0.00000000	          0.78864022	          0.00000000	          0.00000000	          0.00000000	          0.00000000	
          1.98300000	        -21.88746666	        522.12636370	        -32.84649817	          0.34627175	          0.00000000	          0.07112418	          0.00000000	          0.00000000	          0.00000000	          0.00000000	          0.00000000	          0.00000000	          0.00000000	          0.78098168	          0.00000000	          0.00000000	          0.00000000	          0.00000000	
          1.98400000	        -21.73625728	        522.17401883	        -32.90172927	          0.34685212	          0.00000000	          0.07100496	          0.00000000	          0.00000000	          0.00000000	          0.00000000	          0.00000000	          0.00000000	          0.00000000	          0.77128466	          0.00000000	          0.00000000	          0.00000000	          0.00000000	
          1.98500000	        -21.58657441	        522.20194177	        -32.96710408	          0.34745792	          0.00000000	          0.07085090	          0.00000000	          0.00000000	          0.00000000	          0.00000000	          0.00000000	          0.00000000	          0.00000000	          0.76424252	          0.00000000	          0.00000000	          0.00000000	          0.00000000	
          1.98600000	        -21.42697976	        522.24939021	        -33.04155328	          0.34812115	          0.00000000	          0.07066521	          0.00000000	          0.00000000	          0.00000000	          0.00000000	          0.00000000	          0.00000000	          0.00000000	          0.76381703	          0.00000000	          0.00000000	          0.00000000	          0.00000000	
          1.98700000	        -21.24454485	        522.36267177	        -33.11050755	          0.34882675	          0.00000000	          0.07046889	          0.00000000	          0.00000000	          0.00000000	          0.00000000	          0.00000000	          0.00000000	          0.00000000	          0.77169449	          0.00000000	          0.00000000	          0.00000000	          0.00000000	
